<?xml version="1.0" encoding="UTF-8"?>
<svg version="1.1" xmlns="http://www.w3.org/2000/svg" width="1254" height="1254">
<path d="M0 0 C413.82 0 827.64 0 1254 0 C1254 413.82 1254 827.64 1254 1254 C840.18 1254 426.36 1254 0 1254 C0 840.18 0 426.36 0 0 Z " fill="#C01113" transform="translate(0,0)"/>
<path d="M0 0 C3.96338755 0.01407339 7.92675379 0.00736606 11.89015746 0.00386691 C18.53413847 0.00118365 25.17793686 0.01448169 31.82187438 0.03781772 C39.46218506 0.06447052 47.10219195 0.06615001 54.74253327 0.05442935 C62.1535934 0.04359089 69.56454553 0.04988243 76.97559714 0.06398463 C80.10319859 0.06968659 83.23071947 0.06970826 86.35832191 0.06491923 C90.04815037 0.06008958 93.73765279 0.07049384 97.42741942 0.09187388 C99.39838146 0.09994135 101.3693866 0.09365987 103.34035277 0.08667636 C112.31806868 0.16005748 120.47135453 1.48228719 129.18637633 3.50437045 C130.53347041 3.8074051 130.53347041 3.8074051 131.9077785 4.11656165 C145.20046928 7.28178066 157.82825413 15.91029526 168.18637633 24.50437045 C168.99977477 25.17726108 169.81317321 25.8501517 170.65122008 26.54343295 C177.72252713 32.66349448 183.95691492 39.56478198 190.27719665 46.4379642 C193.55408495 49.9847139 196.87201745 53.49267599 200.18637633 57.00437045 C205.79450741 62.9555682 211.38592345 68.92189391 216.96103454 74.90402865 C220.61354271 78.82236259 224.27544716 82.73167785 227.94296813 86.63596225 C234.7444176 93.87771291 241.48947579 101.16585069 248.18637633 108.50437045 C249.55808644 110.0023963 250.930698 111.49959125 252.30356383 112.99655795 C253.67642918 114.49352412 255.0485923 115.99113187 256.42075133 117.48874545 C258.30369783 119.5431124 260.18945168 121.5948574 262.07700133 123.64499545 C270.00834729 132.26625801 270.00834729 132.26625801 273.56137633 136.37937045 C276.84654748 140.17239414 280.26396987 143.83572001 283.68637633 147.50437045 C287.66047809 151.76441095 291.58672933 156.04679757 295.38950133 160.4614017 C297.26768702 162.59681717 299.19374451 164.68425329 301.1272943 166.76950717 C305.91758782 171.93819636 310.45399014 177.22983332 314.87387633 182.72312045 C317.82183483 186.26863811 320.94163022 189.63059853 324.08286071 193.00412631 C328.02362439 197.26240216 331.68935267 201.69283899 335.31137633 206.2270267 C337.07341032 208.47254744 337.07341032 208.47254744 338.90903258 210.0942142 C340.18637633 211.50437045 340.18637633 211.50437045 340.62387633 215.00437045 C340.18637633 218.50437045 340.18637633 218.50437045 338.44616199 220.19931102 C335.90206156 221.66856641 334.50655257 221.88117716 331.5923059 221.88532138 C330.67451354 221.89378085 329.75672118 221.90224032 328.81111693 221.91095614 C327.31113914 221.90184711 327.31113914 221.90184711 325.78085876 221.89255404 C324.72172271 221.897811 323.66258666 221.90306796 322.57135558 221.90848422 C319.06136959 221.92171072 315.55183592 221.91292954 312.04184508 221.90280795 C309.59484815 221.90482957 307.1478518 221.90774174 304.70085692 221.91150546 C299.56193874 221.91593378 294.42317676 221.90948738 289.28427672 221.89548373 C282.73235835 221.87849098 276.18081135 221.88816681 269.62890697 221.90620112 C264.56790478 221.91711019 259.50698861 221.91355842 254.44598365 221.90581775 C252.0329265 221.90383019 249.61986129 221.90622366 247.20681357 221.91325641 C234.52743369 221.94207087 222.48621924 221.84330302 210.18637633 218.50437045 C209.05931777 218.20062251 209.05931777 218.20062251 207.90949035 217.89073825 C188.01530011 212.00126119 170.92491691 198.06393491 160.95468688 179.90378451 C160.00936468 178.11448525 159.09157399 176.31427193 158.18637633 174.50437045 C157.61789977 173.36870639 157.04942321 172.23304233 156.46372008 171.0629642 C149.67514397 156.40164133 148.77671397 141.98545917 149.05077338 126.08031726 C149.09770783 123.09364617 149.1170785 120.10792588 149.12837768 117.12091708 C149.16109155 108.64202247 149.20913437 100.16431175 149.35410094 91.68649936 C149.44136178 86.46736325 149.46972284 81.25069015 149.46026969 76.03087115 C149.46771037 74.05725888 149.49676726 72.0835963 149.54863715 70.11065173 C150.21154533 58.87089985 150.21154533 58.87089985 145.61945128 49.10196567 C135.75612821 39.95274852 123.99130956 37.14752884 110.94418883 37.2973392 C89.31346009 38.48905295 77.16639135 51.46097009 63.18637633 66.50437045 C61.3635677 68.56152051 59.56208828 70.6353169 57.76572204 72.71555209 C55.51310883 75.26693515 53.1217875 77.62626307 50.68637633 80.00437045 C47.56834007 83.07586886 44.5274355 86.17158951 41.68637633 89.50437045 C38.40404243 93.3548006 34.83382784 96.88582625 31.2354486 100.43576694 C27.98637026 103.65803493 24.9619377 106.9977769 21.99497008 110.4770267 C19.0110963 113.82180099 15.78017901 116.91772202 12.59262633 120.06687045 C10.53188288 122.1543768 8.59122007 124.27606268 6.68637633 126.50437045 C3.99026492 129.6583121 1.13820658 132.58810442 -1.81362367 135.50437045 C-4.68288608 138.33927044 -7.45849078 141.17557704 -10.06362367 144.25437045 C-14.01235748 148.88003006 -18.36889413 153.08511017 -22.68837953 157.35959506 C-26.35059553 160.9982882 -29.84013146 164.70697034 -33.17690492 168.6489017 C-35.84656502 171.67536602 -38.75823044 174.45646988 -41.63002992 177.2895267 C-43.59337038 179.28096506 -45.43442036 181.31739623 -47.25112367 183.44187045 C-49.96981614 186.61472965 -52.84114042 189.56775427 -55.81362367 192.50437045 C-58.76545392 195.42063648 -61.61751225 198.3504288 -64.31362367 201.50437045 C-67.79814473 205.58060264 -71.59444348 209.29987918 -75.40737367 213.06687045 C-77.46811712 215.1543768 -79.40877993 217.27606268 -81.31362367 219.50437045 C-84.79575343 223.57780526 -88.58917792 227.29472164 -92.39956117 231.05905795 C-95.1011366 233.79560524 -97.60441102 236.65416411 -100.10268617 239.57468295 C-101.9316223 241.63745566 -103.84942825 243.57027765 -105.81362367 245.50437045 C-108.35177165 248.00376809 -110.75490669 250.54218838 -113.06362367 253.25437045 C-116.63303693 257.4132281 -120.50549473 261.22463179 -124.40151429 265.07272983 C-127.82422921 268.46961294 -131.04623514 271.97180723 -134.17299867 275.64499545 C-136.60450565 278.40070337 -139.23903287 280.9385688 -141.85659242 283.5160892 C-143.70093353 285.38988087 -145.41994432 287.31750516 -147.12612367 289.31687045 C-150.0361278 292.70632606 -153.13521542 295.86889191 -156.31362367 299.00437045 C-160.07578989 302.71579088 -163.64172203 306.52295465 -167.07143617 310.54343295 C-169.78650366 313.59940578 -172.7248941 316.4235699 -175.63393617 319.29343295 C-177.57595915 321.26329856 -179.39424037 323.27590678 -181.18862367 325.37937045 C-184.07577186 328.74994811 -187.15609744 331.88940566 -190.31362367 335.00437045 C-193.40854608 338.05774331 -196.43296683 341.12760777 -199.25112367 344.44187045 C-202.75005716 348.54784782 -206.57194956 352.29018047 -210.40664124 356.07785678 C-213.789172 359.43490307 -216.96891799 362.89212127 -220.04799867 366.5317142 C-222.14946949 368.87959642 -224.41059907 371.01516903 -226.68862367 373.19187045 C-240.00459687 386.36575248 -247.98611548 401.92491808 -248.31362367 420.81687045 C-248.26288588 435.90240963 -242.48809816 451.1940945 -232.16909242 462.35593295 C-227.07923952 466.99841901 -221.41283661 470.93872592 -215.85512757 474.99606967 C-212.83338945 477.22858559 -209.88264238 479.54582291 -206.93862367 481.87937045 C-205.79681982 482.78187014 -204.65488969 483.68421008 -203.51284242 484.5864017 C-202.92293519 485.05255893 -202.33302796 485.51871615 -201.72524476 485.99899936 C-198.07913885 488.87024956 -194.41484789 491.71815826 -190.75112367 494.56687045 C-189.5950763 495.46574985 -189.5950763 495.46574985 -188.41567445 496.38278842 C-183.03070947 500.56625387 -177.62886293 504.72701506 -172.21987367 508.87937045 C-167.28798136 512.67313376 -162.38381516 516.50267956 -157.47475648 520.32590365 C-153.01607078 523.79666037 -148.5475052 527.25374154 -144.06362367 530.69187045 C-139.72965475 534.01944958 -135.41895368 537.37407901 -131.12612367 540.75437045 C-119.85573609 549.62788111 -108.53980996 558.44081438 -97.12612367 567.12937045 C-91.17383926 571.6620381 -85.30661869 576.28656447 -79.48134828 580.98093295 C-72.68146269 586.44456508 -65.73742282 591.71668176 -58.7945807 596.99655795 C-50.94093359 602.97438942 -43.13995672 609.01806557 -35.38613343 615.12473178 C-30.62517029 618.87250265 -25.84748262 622.59837869 -21.06362367 626.31687045 C-20.30895814 626.90347445 -19.55429261 627.49007846 -18.77675843 628.09445834 C-16.45591917 629.89802726 -14.1348212 631.70126265 -11.81362367 633.50437045 C5.60978796 647.03888828 5.60978796 647.03888828 14.18637633 653.75437045 C14.76806579 654.20836215 15.34975524 654.66235385 15.94907165 655.13010287 C18.13432224 656.84448557 20.22025412 658.53824824 22.18637633 660.50437045 C22.49887633 664.00437045 22.49887633 664.00437045 22.18637633 667.50437045 C18.94438805 669.66569597 18.08168613 669.75419442 14.34291911 669.75325942 C12.83685809 669.76015761 12.83685809 669.76015761 11.30037159 669.76719517 C9.6410778 669.75947982 9.6410778 669.75947982 7.94826293 669.75160861 C6.18901495 669.75523023 6.18901495 669.75523023 4.39422661 669.75892502 C1.13292373 669.7635964 -2.12822619 669.75925962 -5.3895179 669.75116074 C-8.90510731 669.74459324 -12.42068266 669.74953039 -15.93627381 669.75304294 C-22.82874626 669.7580915 -29.72117081 669.75243366 -36.61363731 669.74319264 C-44.64646771 669.73281046 -52.67928774 669.73287885 -60.7121236 669.73336522 C-75.05643255 669.73386626 -89.40071924 669.72469611 -103.74502015 669.710181 C-117.64606595 669.69612177 -131.54709214 669.68900898 -145.44814515 669.68967319 C-146.72995201 669.68973312 -146.72995201 669.68973312 -148.03765396 669.68979426 C-148.89074584 669.68983462 -149.74383771 669.68987497 -150.62278086 669.68991655 C-166.45972326 669.69060823 -182.29665735 669.68470202 -198.13359705 669.67576334 C-203.72355729 669.67275671 -209.31351599 669.67168489 -214.90347695 669.67123103 C-221.73106247 669.67054557 -228.55863403 669.66603572 -235.38621364 669.65689822 C-238.8653565 669.65231068 -242.34448163 669.64922331 -245.82362771 669.65049243 C-249.60866995 669.65098702 -253.39365585 669.64528933 -257.1786902 669.63808322 C-258.26034811 669.63963182 -259.34200603 669.64118042 -260.45644146 669.64277595 C-275.72836008 669.59509294 -290.42364555 668.91822739 -304.09877992 661.4301517 C-306.0473083 660.33837096 -306.0473083 660.33837096 -309.18862367 659.12937045 C-317.51846549 655.39530343 -324.81645465 650.32534296 -331.81362367 644.50437045 C-333.01825257 643.52017123 -333.01825257 643.52017123 -334.24721742 642.5160892 C-348.39293006 630.44478684 -357.62338661 614.91012927 -363.81362367 597.50437045 C-364.37359063 596.04506261 -364.93568625 594.58656738 -365.50112367 593.12937045 C-372.6623901 573.3506346 -371.9545759 549.48545143 -365.81362367 529.50437045 C-365.43592835 528.24495639 -365.05823304 526.98554233 -364.66909242 525.6879642 C-360.84412513 514.00390795 -354.56096176 503.43101237 -348.60317445 492.73679233 C-345.60014764 487.31249834 -342.68003874 481.84392158 -339.75112367 476.37937045 C-334.98316697 467.51091854 -330.18021463 458.66241238 -325.35024476 449.82761264 C-320.89770206 441.67564975 -316.49402142 433.49774172 -312.09487367 425.31687045 C-308.18066148 418.03901658 -304.25290796 410.76868182 -300.31362367 403.50437045 C-295.7992649 395.17872568 -291.30106251 386.8445545 -286.81362367 378.50437045 C-285.05486538 375.23782739 -283.29587661 371.97140857 -281.5367682 368.70505404 C-280.4043088 366.60154843 -279.27245455 364.49771689 -278.14126039 362.39353061 C-272.33265762 351.59232422 -266.46090262 340.84023362 -260.37612367 330.19187045 C-254.9851757 320.74467414 -249.93834331 311.14442847 -244.96743226 301.47067904 C-240.94417653 293.65034341 -236.80213857 285.90854384 -232.56337953 278.20334506 C-228.06688597 270.01227567 -223.68653436 261.76180193 -219.31362367 253.50437045 C-214.02477001 243.52044786 -208.69450297 233.56312642 -203.26406312 223.65524936 C-197.66799992 213.43552559 -192.18205043 203.15683322 -186.68955445 192.88123202 C-184.51624879 188.8159112 -182.33811558 184.75320915 -180.15737367 180.69187045 C-173.66367724 168.59464429 -167.20668839 156.47943655 -160.79360414 144.33933139 C-154.04243106 131.559821 -147.21837854 118.82631173 -140.26430726 106.15573764 C-137.59717942 101.2811149 -134.95740554 96.39168037 -132.31362367 91.50437045 C-131.22512577 89.49653422 -130.13658433 87.4887216 -129.04799867 85.48093295 C-126.90293456 81.52250237 -124.76880489 77.55844072 -122.64174867 73.59030795 C-105.85030051 42.36164929 -86.0753454 15.50005755 -50.81362367 4.50437045 C-34.16275408 -0.36791631 -17.17613918 -0.07637679 0 0 Z " fill="#FDFBFB" transform="translate(609.8136236667633,272.4956295490265)"/>
<path d="M0 0 C413.82 0 827.64 0 1254 0 C1254 413.82 1254 827.64 1254 1254 C840.18 1254 426.36 1254 0 1254 C0 840.18 0 426.36 0 0 Z M182.125 5.75 C180.91682617 6.01240479 179.70865234 6.27480957 178.46386719 6.54516602 C168.71683174 8.72439712 159.30236764 11.36334773 150 15 C149.36336426 15.2479834 148.72672852 15.4959668 148.07080078 15.75146484 C110.04727341 30.88119449 73.38266943 56.7297545 49 90 C48.55978516 90.59087402 48.11957031 91.18174805 47.66601562 91.79052734 C39.81211858 102.37336526 33.02308917 113.28113749 27 125 C26.36167236 126.2377417 26.36167236 126.2377417 25.71044922 127.50048828 C17.5149887 143.57631696 11.57312934 159.98909262 7.25 177.5 C7.06332764 178.24443359 6.87665527 178.98886719 6.68432617 179.75585938 C6.04778812 182.49294441 5.52135224 185.2383116 5 188 C4.87885316 188.62651024 4.75770632 189.25302049 4.63288836 189.89851589 C1.49577829 206.71573306 1.57041512 223.53583975 1.61459734 240.57045885 C1.62228906 244.8359029 1.61239578 249.1013152 1.60486734 253.36675459 C1.5940871 260.82396619 1.594327 268.28111251 1.60200882 275.73832703 C1.61340111 286.8278996 1.60753185 297.91741756 1.5983839 309.00698982 C1.58261851 328.81832387 1.58394318 348.62962883 1.59262064 368.44096562 C1.60017724 385.77916963 1.60213278 403.117363 1.5985527 420.45556831 C1.59832355 421.60714525 1.59809439 422.75872219 1.59785829 423.9451954 C1.59692423 428.62022456 1.59596902 433.29525372 1.594979 437.97028287 C1.58580866 481.79690591 1.59411171 525.62351046 1.61026969 569.45013065 C1.62450481 608.35698177 1.62323265 647.26380343 1.60888672 686.1706543 C1.59281002 729.91732264 1.58646005 773.66397466 1.59572351 817.41064554 C1.59668561 822.07730233 1.59762414 826.74395913 1.5985527 831.41061592 C1.59878994 832.55960361 1.59902717 833.70859129 1.59927159 834.89239679 C1.60267881 852.21573888 1.59870285 869.53906914 1.59111404 886.86240959 C1.58252462 906.56773654 1.58470554 926.27302993 1.60095628 945.97835272 C1.60974368 956.99613443 1.61037128 968.01384342 1.59901775 979.0316232 C1.59226171 986.40310852 1.59652916 993.77453587 1.60953206 1001.14601264 C1.616627 1005.33789145 1.61919587 1009.52962641 1.60831411 1013.72150039 C1.5577394 1034.73002014 2.10768834 1055.39562236 7.375 1075.875 C7.58922607 1076.73464355 7.80345215 1077.59428711 8.02416992 1078.47998047 C14.82312582 1105.27279241 25.67356285 1131.54295291 42 1154 C42.68320312 1154.95519531 43.36640625 1155.91039062 44.0703125 1156.89453125 C57.71217669 1175.54819142 73.62584934 1193.07690587 92.31591797 1206.76464844 C94.00708542 1208.00519748 95.67745885 1209.27047188 97.34765625 1210.5390625 C106.38376082 1217.30309805 115.99569335 1222.80011647 126 1228 C126.73283203 1228.38542969 127.46566406 1228.77085938 128.22070312 1229.16796875 C164.85450323 1248.21624458 203.17757909 1253.49097806 243.86233317 1253.38540266 C248.1350723 1253.37769797 252.40778012 1253.38760919 256.68051463 1253.39513266 C264.14737383 1253.40590357 271.6141678 1253.40567886 279.08102989 1253.39799118 C290.18480921 1253.38659038 301.28853405 1253.39247245 312.39231307 1253.4016161 C332.22885606 1253.41737424 352.06536999 1253.41605988 371.90191572 1253.40737936 C389.25974087 1253.39982117 406.61755539 1253.39786797 423.97538185 1253.4014473 C425.12849791 1253.40167645 426.28161396 1253.40190561 427.46967293 1253.40214171 C432.15096888 1253.40307578 436.83226482 1253.40403098 441.51356076 1253.405021 C485.38962321 1253.41418937 529.26566718 1253.40589097 573.14172678 1253.38973031 C612.09587787 1253.3754916 651.04999955 1253.37677076 690.00415039 1253.39111328 C733.8064816 1253.40718709 777.6087965 1253.41354189 821.41113025 1253.40427649 C826.08277531 1253.40331439 830.75442038 1253.40237586 835.42606544 1253.4014473 C836.57627813 1253.40121006 837.72649081 1253.40097283 838.91155842 1253.40072841 C856.25764487 1253.39732037 873.6037195 1253.40129859 890.94980431 1253.40888596 C910.67673265 1253.41747189 930.40362748 1253.41530168 950.13055166 1253.39904372 C961.16209483 1253.39025124 972.19356537 1253.38963616 983.22510662 1253.40098225 C990.60314131 1253.40773194 997.98111802 1253.40348215 1005.35914415 1253.39046794 C1009.55636879 1253.38336442 1013.75344961 1253.38082245 1017.95066949 1253.39168589 C1034.51220144 1253.43144132 1050.69324924 1253.26073092 1067 1250 C1068.76327709 1249.66944251 1068.76327709 1249.66944251 1070.56217593 1249.33220708 C1106.58015834 1242.43059806 1140.99437067 1225.57247035 1169 1202 C1169.54930176 1201.5447998 1170.09860352 1201.08959961 1170.66455078 1200.62060547 C1180.07953853 1192.84841659 1180.07953853 1192.84841659 1188.37109375 1183.91992188 C1189.92914717 1182.08351119 1191.5603266 1180.43602513 1193.296875 1178.76953125 C1196.99894045 1175.09663506 1200.18019678 1171.16239924 1203.3125 1167 C1203.87372559 1166.2572583 1204.43495117 1165.5145166 1205.01318359 1164.74926758 C1219.48390784 1145.4337103 1230.83363111 1125.26416369 1239.07910156 1102.53125 C1239.85975907 1100.38547666 1240.6685078 1098.25445764 1241.4921875 1096.125 C1245.87360441 1084.15094135 1247.81736356 1071.52422723 1250 1059 C1250.16373936 1058.1053161 1250.32747873 1057.2106322 1250.49617989 1056.28883667 C1252.21394414 1045.075616 1252.1471435 1033.53576338 1252.13142776 1022.21953011 C1252.13308314 1020.80177169 1252.13517199 1019.38401372 1252.13764787 1017.9662565 C1252.1431505 1014.10420787 1252.14255404 1010.24218169 1252.14087028 1006.38013042 C1252.14013316 1002.16540974 1252.14517608 997.95069509 1252.1494453 993.73597705 C1252.15699173 985.39185596 1252.15921664 977.04774127 1252.15977435 968.70361712 C1252.16069131 958.70256141 1252.16736861 948.70151155 1252.17412117 938.70045837 C1252.19014851 914.53529299 1252.19608051 890.37012826 1252.20086992 866.20495851 C1252.20320891 854.76573031 1252.20681186 843.32650262 1252.2105653 831.88727481 C1252.22339723 792.7025458 1252.23411725 753.51781707 1252.2375679 714.33308601 C1252.23778953 711.87533174 1252.23801132 709.41757746 1252.23823325 706.95982318 C1252.23845389 704.49626708 1252.23867437 702.03271097 1252.2388947 699.56915486 C1252.23933724 694.62715793 1252.23978436 689.68516099 1252.24023438 684.74316406 C1252.24039846 682.9051851 1252.24039846 682.9051851 1252.24056586 681.03007526 C1252.24419598 641.30473712 1252.26011619 601.57941723 1252.28342474 561.85408608 C1252.30804349 519.81864422 1252.32174166 477.78321279 1252.32293582 435.74776351 C1252.32310726 431.12982487 1252.32332269 426.51188624 1252.32357025 421.8939476 C1252.32362602 420.75694546 1252.32368179 419.61994332 1252.32373925 418.44848656 C1252.32488782 400.18513101 1252.33589314 381.92179426 1252.35045731 363.65844505 C1252.36485274 345.28853903 1252.36804209 326.91865701 1252.36001733 308.5487469 C1252.35557566 297.64958203 1252.35936292 286.75049487 1252.37525584 275.85134029 C1252.38505933 268.55364586 1252.38377677 261.25600542 1252.37381961 253.9583114 C1252.36846607 249.81176483 1252.36759108 245.66536665 1252.38032833 241.51883282 C1252.45393729 215.90662781 1251.51564054 190.67651227 1244 166 C1243.7309082 165.113125 1243.46181641 164.22625 1243.18457031 163.3125 C1234.55634093 135.5461754 1221.28720438 109.61353964 1203 87 C1202.33484375 86.14277344 1201.6696875 85.28554687 1200.984375 84.40234375 C1194.07446359 75.54024192 1186.63327774 66.90576012 1177.9921875 59.6875 C1176.58785591 58.49794853 1175.22069187 57.26382701 1173.8828125 56 C1160.91778688 43.77708022 1145.63263851 34.40687122 1130 26 C1129.27184082 25.6071582 1128.54368164 25.21431641 1127.79345703 24.80957031 C1097.17897056 8.60799457 1062.94458185 0.81662388 1028.46703625 0.87136555 C1027.03951562 0.87001586 1025.61199535 0.86823027 1024.18447575 0.86605331 C1020.28140307 0.8613559 1016.37835392 0.86281432 1012.47528014 0.86533108 C1008.22145343 0.86697185 1003.96763158 0.86281697 999.71380645 0.85942191 C992.26476717 0.85427893 984.81573438 0.85284879 977.3666935 0.85387802 C966.28945281 0.85540481 955.21221929 0.85123711 944.13498 0.8460034 C923.19918701 0.83633795 902.26339647 0.83351947 881.32760151 0.83294634 C865.16052209 0.83248665 848.99344363 0.83042753 832.82636452 0.82724571 C828.17130607 0.82634816 823.51624763 0.82545835 818.86118919 0.82457083 C817.1252675 0.82423926 817.1252675 0.82423926 815.3542767 0.82390099 C782.80766785 0.81774786 750.26105934 0.81380033 717.71444988 0.81424427 C715.87425712 0.81426764 715.87425712 0.81426764 713.99688875 0.81429148 C707.77908445 0.81437459 701.56128014 0.81447363 695.34347584 0.81457619 C694.10861255 0.81459613 692.87374927 0.81461608 691.60146588 0.81463663 C689.10427312 0.81467706 686.60708036 0.81471886 684.1098876 0.81476202 C645.25139594 0.81537487 606.392913 0.80786593 567.53442383 0.79418945 C523.87064403 0.77882803 480.20686997 0.77022324 436.5430873 0.77115268 C431.8870858 0.77122731 427.23108429 0.77127601 422.57508278 0.77130699 C420.85546061 0.77132447 420.85546061 0.77132447 419.10109861 0.77134231 C400.65615055 0.77137307 382.21121007 0.76498858 363.76626426 0.75637473 C345.22925743 0.74789691 326.69226167 0.74690934 308.15525397 0.75348405 C297.14515121 0.75717862 286.13508214 0.75535005 275.12498295 0.74554171 C267.76599629 0.73954022 260.40703401 0.74083907 253.04804846 0.74801221 C248.85826448 0.75189221 244.66854566 0.75267366 240.47876628 0.74455485 C236.65845073 0.73721704 232.83825391 0.73928101 229.01794342 0.74847872 C227.01498779 0.7509805 225.01202696 0.74378508 223.00908467 0.73605594 C209.12810987 0.78994231 195.67959126 2.79784942 182.125 5.75 Z " fill="#FCF8F7" transform="translate(0,0)"/>
<path d="M0 0 C8.68300936 4.95991668 14.13937742 11.92148877 17.3359375 21.47265625 C19.34493254 33.2587605 16.61030013 43.40343158 10.6875 53.53515625 C8.36345944 56.51327802 5.79032189 59.17469094 3.125 61.84765625 C1.69476325 63.32368674 0.26508083 64.80025455 -1.1640625 66.27734375 C-1.86692383 66.99631836 -2.56978516 67.71529297 -3.29394531 68.45605469 C-6.16540697 71.4136463 -8.96319584 74.43549657 -11.75 77.47265625 C-12.48331543 78.26833008 -12.48331543 78.26833008 -13.23144531 79.08007812 C-16.05428886 82.14729872 -18.84732411 85.23955052 -21.625 88.34765625 C-28.70988789 96.24954022 -36.03747094 103.93011559 -43.31054688 111.65820312 C-52.11421382 120.98812098 -52.11421382 120.98812098 -60.75 130.47265625 C-66.77223877 137.21801562 -73.02230751 143.75264077 -79.22949219 150.32714844 C-87.44917754 159.04009199 -95.63873289 167.78037082 -103.74829102 176.59594727 C-107.80349086 180.99863871 -111.89968325 185.36200193 -116 189.72265625 C-119.9799961 193.95686367 -123.94295509 198.19922552 -127.8125 202.53515625 C-133.5457855 208.95686628 -139.47393418 215.19710572 -145.37060547 221.46826172 C-152.55891506 229.11928372 -159.72802472 236.78780609 -166.8125 244.53515625 C-177.57035121 256.29959003 -188.51483299 267.89269605 -199.42138672 279.51904297 C-201.30337143 281.52542429 -203.18497119 283.53216576 -205.06640625 285.5390625 C-205.68515625 286.1990625 -206.30390625 286.8590625 -206.94140625 287.5390625 C-208.18502605 288.86576337 -209.42851644 290.19258556 -210.671875 291.51953125 C-213.88055575 294.94346941 -217.0921464 298.36460558 -220.30859375 301.78125 C-221.29146362 302.82659912 -221.29146362 302.82659912 -222.29418945 303.89306641 C-223.58446003 305.2649956 -224.87593873 306.63578971 -226.16870117 308.00537109 C-229.43223628 311.47555777 -232.57250873 315.00084443 -235.625 318.66015625 C-242.6164102 326.60700862 -253.57390329 331.77326909 -264.08984375 332.80859375 C-275.03318057 333.16029555 -284.10717063 330.74031969 -292.4375 323.41015625 C-294.08384368 321.80678402 -295.70784192 320.18024666 -297.3125 318.53515625 C-298.27341282 317.57159173 -299.23570087 316.60939709 -300.19921875 315.6484375 C-302.06960485 313.78299461 -303.92334484 311.90544358 -305.76953125 310.015625 C-308.1764606 307.66785213 -310.68841735 305.6319507 -313.3125 303.53515625 C-314.98980973 301.87920105 -316.6548374 300.2107786 -318.3125 298.53515625 C-320.21465835 296.64238455 -322.11737737 294.75019002 -324.02075195 292.85864258 C-329.56066441 287.35127074 -335.09559527 281.83892124 -340.62763691 276.32364368 C-343.96959877 272.99217073 -347.313428 269.66261526 -350.66137695 266.3371582 C-353.90693662 263.11325584 -357.14765088 259.88455663 -360.38500023 256.65241051 C-361.61968943 255.42142415 -362.85614107 254.19220298 -364.09435463 252.96476173 C-365.81795346 251.2555869 -367.53528687 249.54035136 -369.2512207 247.82348633 C-370.0248999 247.06059296 -370.0248999 247.06059296 -370.81420898 246.2822876 C-374.3125 242.76326676 -374.3125 242.76326676 -374.3125 240.53515625 C-375.20388672 240.13103516 -375.20388672 240.13103516 -376.11328125 239.71875 C-385.64902678 234.58672354 -394.1160161 222.67527536 -397.65625 212.7265625 C-400.57794458 202.97018954 -399.96726811 194.6514149 -395.3125 185.53515625 C-391.56016883 178.93622901 -386.16680236 172.96230743 -379.3125 169.53515625 C-378.28189453 169.01888672 -378.28189453 169.01888672 -377.23046875 168.4921875 C-373.20777236 167.17282925 -369.46001076 167.08874429 -365.25 167.03515625 C-364.46689453 166.99390625 -363.68378906 166.95265625 -362.87695312 166.91015625 C-352.41458321 166.77461138 -344.66724955 171.93071625 -337.36336517 178.90775871 C-334.37188335 181.86369051 -331.42105093 184.85619733 -328.49206734 187.87403488 C-326.08842891 190.35029403 -323.66635497 192.80716191 -321.23899841 195.26016235 C-316.10046767 200.4600567 -310.98694684 205.68414683 -305.875 210.91015625 C-299.92368622 216.9891222 -293.96240276 223.05785795 -287.98109245 229.10731888 C-285.59448304 231.53009152 -283.22384644 233.96776615 -280.85365295 236.40658569 C-279.39736464 237.88422203 -277.94040558 239.3611977 -276.48266602 240.83740234 C-275.82754028 241.51993073 -275.17241455 242.20245911 -274.49743652 242.90567017 C-271.04967541 246.48076721 -271.04967541 246.48076721 -266.47775269 248.03642273 C-263.71705287 247.39730736 -262.70571659 246.44313607 -260.81640625 244.34375 C-260.18275146 243.654021 -259.54909668 242.96429199 -258.89624023 242.25366211 C-258.22923096 241.50093018 -257.56222168 240.74819824 -256.875 239.97265625 C-256.17125244 239.20123291 -255.46750488 238.42980957 -254.74243164 237.63500977 C-253.28970798 236.04251635 -251.84205331 234.44538458 -250.39941406 232.84375 C-247.39027895 229.51497349 -244.32042207 226.24477845 -241.25 222.97265625 C-240.10640099 221.74643857 -238.96317405 220.51987378 -237.8203125 219.29296875 C-234.73986911 215.98988462 -231.64916067 212.6965451 -228.55688477 209.40454102 C-222.7240693 203.19432109 -216.93222942 196.95200276 -211.1875 190.66015625 C-207.7609354 186.92208578 -204.28528723 183.23022964 -200.8125 179.53515625 C-195.54264163 173.92764708 -190.31718697 168.28470159 -185.12890625 162.6015625 C-181.8425966 159.01208338 -178.51342281 155.4628868 -175.1875 151.91015625 C-169.82619222 146.17930221 -164.536203 140.39203537 -159.3125 134.53515625 C-150.60726673 124.80577789 -141.76037897 115.21327287 -132.83666992 105.68432617 C-128.23485108 100.76931695 -123.66498105 95.85098447 -119.2734375 90.74609375 C-115.78428166 86.81210529 -112.1623555 83.00024218 -108.56640625 79.1640625 C-105.27833478 75.65259764 -102.01687954 72.12358127 -98.8125 68.53515625 C-94.50582534 63.71711391 -90.09728591 58.99856008 -85.68237305 54.2800293 C-78.00876609 46.07799103 -70.39936116 37.81742298 -62.8125 29.53515625 C-61.45392467 28.05276078 -60.09521269 26.57049091 -58.73632812 25.08837891 C-57.75035563 24.01280328 -56.76469971 22.9369374 -55.77929688 21.86083984 C-52.30635891 18.07051753 -48.81423354 14.29888999 -45.3125 10.53515625 C-44.65378906 9.80941406 -43.99507812 9.08367188 -43.31640625 8.3359375 C-31.85326373 -3.86847059 -15.22030085 -7.26607447 0 0 Z " fill="#FDFBFB" transform="translate(997.3125,617.46484375)"/>
<path d="M0 0 C0.7762114 -0.00709439 1.55242279 -0.01418877 2.35215575 -0.02149814 C4.93796561 -0.03901833 7.52226032 -0.02100496 10.10804749 -0.00291443 C11.96800417 -0.0080556 13.82795598 -0.01533836 15.68789673 -0.02459717 C20.72936479 -0.04309547 25.77030327 -0.03018188 30.81174922 -0.01050687 C36.09310301 0.00589628 41.37442369 -0.0029357 46.65579224 -0.00802612 C55.52537987 -0.0125456 64.39475651 0.00331284 73.26429749 0.03126526 C83.51008982 0.06330654 93.75550145 0.06330471 104.00132078 0.04605049 C113.86689129 0.03017034 123.73232259 0.03692921 133.59788704 0.0539875 C137.79189841 0.06084955 141.98579791 0.05983418 146.17980766 0.05244255 C151.12198503 0.04476489 156.06373074 0.0569543 161.00583458 0.08429146 C162.81659413 0.0911612 164.6273941 0.09128843 166.43815231 0.08407593 C168.91619513 0.07534508 171.39291685 0.09139736 173.87084961 0.11352539 C174.58205222 0.10528462 175.29325482 0.09704386 176.02600902 0.08855337 C182.02653945 0.18698879 187.29572682 2.04608265 191.65686363 6.21187204 C195.10198242 10.16851185 195.71433576 13.98566878 195.40907288 19.13600159 C194.51177577 24.58814971 192.45191056 28.93608118 187.97683716 32.32020569 C181.13127816 36.36475273 172.5450727 35.30456516 164.85218811 35.24342346 C163.00031527 35.24692733 161.14844544 35.2525889 159.29658508 35.26023865 C154.28208494 35.27445703 149.2681351 35.25745449 144.25368762 35.23395348 C138.99990746 35.2138107 133.74614938 35.21972577 128.49234009 35.22206116 C119.67160493 35.22200763 110.85108428 35.20227458 102.03041077 35.17018127 C91.83858487 35.13327895 81.64703978 35.12450778 71.45515579 35.13147879 C61.64138151 35.13778778 51.82770332 35.12702286 42.01394844 35.10751343 C37.84146313 35.09934774 33.66902698 35.09662835 29.49653435 35.09820557 C24.58230951 35.09908565 19.66835078 35.08483494 14.75419617 35.05897903 C12.95269117 35.05182809 11.15115784 35.04972844 9.3496418 35.05309677 C6.88681961 35.05682268 4.42476928 35.04202609 1.96203613 35.02259827 C1.25249375 35.02792619 0.54295137 35.03325412 -0.18809229 35.0387435 C-6.2299693 34.95675079 -11.02125745 33.66152382 -15.31358337 29.25318909 C-19.02121124 23.48576796 -19.8653753 18.43312048 -19.00108337 11.62818909 C-15.20247034 3.57512946 -8.7413741 -0.1450178 0 0 Z " fill="#FDFAFA" transform="translate(645.0010833740234,546.3718109130859)"/>
<path d="M0 0 C1.52822873 -0.00378662 3.05645402 -0.00928949 4.58467102 -0.01637268 C8.72103794 -0.03029878 12.85698758 -0.01917825 16.99333119 -0.00266147 C21.32803096 0.01121987 25.66270727 0.00472554 29.99742126 0.00120544 C37.2747162 -0.00149396 44.55184594 0.01195662 51.82910156 0.03515625 C60.23673006 0.06177431 68.64408259 0.06350892 77.0517388 0.05176789 C85.14890761 0.04098118 93.24597683 0.04718353 101.34313774 0.06132317 C104.78519489 0.06707422 108.22717894 0.06700725 111.66923714 0.06225777 C115.72328001 0.0574782 119.77702144 0.06763 123.831007 0.08921242 C125.31687275 0.09476678 126.80276754 0.09525799 128.28863525 0.09025955 C130.32024287 0.08428333 132.35187971 0.09867742 134.38343811 0.11402893 C135.51921327 0.11645883 136.65498842 0.11888872 137.82518101 0.12139225 C143.12522732 0.7602729 146.97408466 2.92261789 150.29272461 7.06420898 C150.78385742 7.66362305 151.27499023 8.26303711 151.78100586 8.88061523 C154.70223305 12.82950541 154.42157664 16.75115617 153.98022461 21.50170898 C152.2625651 26.20267186 149.81093472 29.29460284 145.98022461 32.50170898 C141.68482936 34.25117425 138.047187 34.75680508 133.4281311 34.77586365 C132.12725052 34.78583878 130.82636993 34.7958139 129.48606873 34.80609131 C128.0565492 34.80698697 126.6270295 34.80765061 125.19750977 34.80810547 C123.68252659 34.81573225 122.16754727 34.82416063 120.65257263 34.83332825 C116.54714226 34.85522674 112.44178635 34.86406566 108.33630419 34.86915469 C105.76894663 34.87280322 103.20160843 34.8790458 100.63425827 34.88615608 C91.67079566 34.91063267 82.7073908 34.92369898 73.74389648 34.92724609 C65.39930351 34.93088185 57.05507823 34.96078453 48.71059763 35.00265068 C41.53672519 35.03737711 34.36297451 35.05279492 27.18901861 35.05349213 C22.90853888 35.05428402 18.62843412 35.06298251 14.34804153 35.09148979 C10.32099812 35.1177117 6.29463952 35.11985316 2.26754951 35.10383415 C0.79378704 35.10202302 -0.68001521 35.10868018 -2.15369225 35.12465286 C-10.30849913 35.20761791 -16.76273466 35.17669497 -23.01977539 29.50170898 C-26.47081091 25.87812169 -27.31966112 23.00190726 -27.58227539 18.12670898 C-27.35793705 12.63041975 -25.97992221 8.40963409 -22.01977539 4.50170898 C-15.29069356 -0.73144072 -8.21108851 -0.05792273 0 0 Z " fill="#FCF9F9" transform="translate(653.019775390625,630.498291015625)"/>
<path d="M0 0 C1.12919357 -0.01197418 2.25838715 -0.02394836 3.42179871 -0.0362854 C7.1495498 -0.06845131 10.87613745 -0.06365442 14.60400391 -0.05566406 C17.19943646 -0.06411324 19.79486539 -0.07375354 22.39028931 -0.08453369 C27.82919289 -0.10092742 33.26764938 -0.09858506 38.70654297 -0.08300781 C44.97926303 -0.06549663 51.25071088 -0.09185812 57.52324235 -0.13997436 C63.57394543 -0.18465227 69.62399242 -0.19008335 75.6748848 -0.18012238 C78.24167986 -0.18048197 80.80849781 -0.19175585 83.37519455 -0.21422577 C86.96854825 -0.24150599 90.55905921 -0.2240336 94.15234375 -0.1953125 C95.20819168 -0.21262421 96.26403961 -0.22993591 97.35188293 -0.24777222 C104.0165241 -0.13397927 107.45364359 1.23527314 112.21525002 5.94625473 C115.81037327 10.12549722 116.10239258 14.12511203 115.95166016 19.47167969 C115.40290231 24.39307943 113.33805665 27.07372026 109.83056641 30.42871094 C103.59721047 34.91672721 98.53266762 34.97595155 91.05957031 34.96923828 C89.9874379 34.97595551 88.91530548 34.98267273 87.8106842 34.98959351 C84.26778525 35.00858562 80.72507559 35.01249828 77.18212891 35.01464844 C74.71739626 35.02107525 72.25266439 35.02780352 69.78793335 35.03482056 C64.62146231 35.04679618 59.45505816 35.05050105 54.28857422 35.04931641 C47.67195044 35.04911315 41.05575583 35.07642195 34.43923378 35.11086082 C29.34854161 35.13310929 24.25795307 35.13715458 19.16721725 35.13609695 C16.72799576 35.13845574 14.28877153 35.14729482 11.84959793 35.16276169 C8.43621084 35.18238022 5.02375397 35.17659912 1.61035156 35.16455078 C0.60544174 35.17578979 -0.39946808 35.18702881 -1.43482971 35.1986084 C-8.39052167 35.13629193 -12.97149539 33.95783018 -18.07177734 28.92480469 C-21.65881981 23.33288326 -22.37054955 18.23597827 -21.29443359 11.67871094 C-16.47475795 1.66861536 -10.31291879 -0.06790714 0 0 Z " fill="#FCF8F9" transform="translate(647.29443359375,714.3212890625)"/>
<path d="M0 0 C5.22712987 5.34592828 8.03227344 10.22705689 8.3125 17.8125 C7.9857251 24.9380083 5.96335427 30.19142257 1.375 35.625 C-6.03228117 41.79773431 -11.19886801 43.23482892 -20.7265625 43.15625 C-27.07272002 42.53711268 -30.86843721 39.52629812 -35.0625 34.9375 C-40.29601594 27.46104866 -40.90798301 21.47762416 -40.0390625 12.67578125 C-38.75503258 5.41387872 -33.75010362 0.76258082 -28.125 -3.625 C-18.13327584 -9.05528487 -8.82195058 -5.93785135 0 0 Z " fill="#FCF8F8" transform="translate(586.25,712.1875)"/>
<path d="M0 0 C5.81006813 2.99466307 9.79878922 7.10804965 13.125 12.6875 C15.33139633 20.47478117 15.09622481 28.25304225 11.1875 35.4375 C7.61499339 40.79625991 3.33805202 44.32719329 -2.8125 46.4375 C-11.02005163 47.49076934 -17.95155672 47.06795346 -24.6796875 42.04296875 C-29.08861439 38.42984401 -32.68756535 35.19045526 -33.8125 29.4375 C-34.44767084 20.09315972 -33.97560112 14.0891193 -28.6875 6.3125 C-21.06241196 -2.10451113 -10.53664048 -4.12849627 0 0 Z " fill="#FCF9F9" transform="translate(579.8125,624.5625)"/>
<path d="M0 0 C6.88375799 4.1037788 13.01326634 8.95515676 15.25 16.9375 C16.52236046 25.88378449 14.09736919 32.11887522 9.625 39.6875 C3.90013997 45.11105161 -2.01613613 47.26737099 -9.875 47.5625 C-17.27966689 47.26534959 -21.30426002 45.32915886 -26.4921875 40.22265625 C-32.25802726 33.91885536 -33.14690929 28.54827539 -33.00390625 20.1015625 C-32.51218113 13.97391099 -30.11762749 9.30512749 -25.75 4.9375 C-17.59644481 -1.56058952 -10.01535446 -2.83768376 0 0 Z " fill="#FCF9F9" transform="translate(578.75,540.0625)"/>
<path d="M0 0 C0.99 0 1.98 0 3 0 C3.05139489 80.13599692 3.09909654 160.27199582 3.12702942 240.40800476 C3.12744359 241.59317986 3.12785776 242.77835496 3.12828448 243.99944446 C3.13726225 269.75366055 3.14557293 295.50787681 3.15319599 321.26209332 C3.15693815 333.8911189 3.16082779 346.52014442 3.16479492 359.14916992 C3.16538334 361.03432556 3.16538334 361.03432556 3.16598364 362.95756516 C3.17877811 403.72662421 3.20131979 444.49567083 3.22889166 485.26472235 C3.25716324 527.14425255 3.27565024 569.02377587 3.28174497 610.90331546 C3.28260949 616.8123105 3.2835864 622.72130551 3.28463173 628.63030052 C3.284834 629.79332781 3.28503627 630.95635509 3.28524467 632.15462563 C3.28879612 650.91063704 3.30272724 669.66662721 3.3204961 688.42262995 C3.33812009 707.25785446 3.34491344 726.09305781 3.34050413 744.92829029 C3.33821448 756.1321514 3.3443759 767.33593538 3.36239263 778.53978264 C3.37359224 786.01178639 3.37402651 793.48373928 3.36549544 800.95574645 C3.36094011 805.22099914 3.36126583 809.48610535 3.37464955 813.75134269 C3.38671326 817.62509893 3.38518457 821.4985932 3.37241993 825.37234502 C3.37026233 826.77123849 3.37322611 828.17015072 3.38170573 829.56902016 C3.39243569 831.4576147 3.38309888 833.34629208 3.37259549 835.2348879 C3.37306343 836.2838576 3.37353137 837.33282729 3.37401349 838.41358395 C3 841 3 841 0 844 C0 565.48 0 286.96 0 0 Z " fill="#F5E3E2" transform="translate(1251,206)"/>
<path d="M0 0 C0.33 0 0.66 0 1 0 C1.06949629 7.3800015 1.12280914 14.7599325 1.15543652 22.14019489 C1.17109574 25.56713223 1.19233804 28.99384577 1.22631836 32.4206543 C1.26513514 36.35983608 1.27970716 40.29892709 1.29296875 44.23828125 C1.30845261 45.46960281 1.32393646 46.70092438 1.33988953 47.96955872 C1.34011612 49.11051498 1.34034271 50.25147125 1.34057617 51.42700195 C1.34723801 52.432939 1.35389984 53.43887604 1.36076355 54.47529602 C0.947951 57.36425056 0.26471848 58.23613744 -2 60 C-2.02752977 58.02091515 -2.04663002 56.04171269 -2.0625 54.0625 C-2.07410156 52.96035156 -2.08570313 51.85820313 -2.09765625 50.72265625 C-2.0266303 48.01514687 -1.84821185 45.51280649 -1.51367188 42.84179688 C-0.97819379 38.16042078 -0.7838658 33.51696905 -0.68359375 28.80859375 C-0.6524221 27.56252098 -0.6524221 27.56252098 -0.62062073 26.29127502 C-0.55595518 23.67342285 -0.49663208 21.0554824 -0.4375 18.4375 C-0.39423555 16.64777783 -0.35061894 14.85806414 -0.30664062 13.06835938 C-0.20036076 8.71232685 -0.09886742 4.35620681 0 0 Z " fill="#F8E9E9" transform="translate(1253,990)"/>
<path d="M0 0 C0.33 0.99 0.66 1.98 1 3 C0.55197021 3.44279297 0.10394043 3.88558594 -0.35766602 4.34179688 C-2.42870096 6.39176683 -4.49560697 8.44585433 -6.5625 10.5 C-7.26697266 11.19609375 -7.97144531 11.8921875 -8.69726562 12.609375 C-13.34487438 17.2355662 -17.75074904 22.00542858 -22 27 C-22.99 26.67 -23.98 26.34 -25 26 C-16.90196051 17.08486103 -8.57832717 8.45380307 0 0 Z " fill="#C21819" transform="translate(78,59)"/>
<path d="M0 0 C-0.33 0.99 -0.66 1.98 -1 3 C-3.328125 3.984375 -3.328125 3.984375 -6.25 4.75 C-7.68085937 5.14445312 -7.68085937 5.14445312 -9.140625 5.546875 C-12.10401766 6.01648367 -14.12455745 5.77657937 -17 5 C-12.06033192 0.65309209 -6.43314933 -0.31381216 0 0 Z " fill="#C72B2A" transform="translate(717,310)"/>
<path d="M0 0 C-0.33 0.99 -0.66 1.98 -1 3 C-10.9 3 -20.8 3 -31 3 C-31 2.67 -31 2.34 -31 2 C-26.77107814 1.66351188 -22.54182647 1.33136068 -18.3125 1 C-16.51522461 0.85691406 -16.51522461 0.85691406 -14.68164062 0.7109375 C-13.52470703 0.62070313 -12.36777344 0.53046875 -11.17578125 0.4375 C-10.11270752 0.35371094 -9.04963379 0.26992187 -7.9543457 0.18359375 C-5.29235178 0.0181678 -2.66602163 -0.03448371 0 0 Z " fill="#F9E5E2" transform="translate(1060,1251)"/>
<path d="M0 0 C0.99 0.33 1.98 0.66 3 1 C-2.61 6.61 -8.22 12.22 -14 18 C-14 13.73187416 -11.48608073 11.92209942 -8.6875 9 C-8.18798828 8.46632813 -7.68847656 7.93265625 -7.17382812 7.3828125 C-4.82392043 4.88039424 -2.44823734 2.40645854 0 0 Z " fill="#C41E1F" transform="translate(647,366)"/>
<path d="M0 0 C0.70382813 0.06058594 1.40765625 0.12117188 2.1328125 0.18359375 C10.08399921 0.85830281 18.03951074 1.44653403 26 2 C26 2.33 26 2.66 26 3 C17.42 3 8.84 3 0 3 C0 2.01 0 1.02 0 0 Z " fill="#F8E1DF" transform="translate(200,1251)"/>
<path d="M0 0 C0.99 0.33 1.98 0.66 3 1 C-0.63 4.96 -4.26 8.92 -8 13 C-9.32 12.67 -10.64 12.34 -12 12 C-8.04 8.04 -4.08 4.08 0 0 Z " fill="#C42022" transform="translate(526,494)"/>
<path d="M0 0 C0.99 0 1.98 0 3 0 C3.05390357 2.93774463 3.0936255 5.87450232 3.125 8.8125 C3.15013672 10.06256836 3.15013672 10.06256836 3.17578125 11.33789062 C3.18222656 12.14033203 3.18867187 12.94277344 3.1953125 13.76953125 C3.20578613 14.50792236 3.21625977 15.24631348 3.22705078 16.00708008 C3 18 3 18 1 21 C0.67 14.07 0.34 7.14 0 0 Z " fill="#F8EAE9" transform="translate(1251,206)"/>
<path d="M0 0 C0.66 0.33 1.32 0.66 2 1 C-2.16704183 5.85743929 -6.41844996 10.53019508 -11 15 C-11.66 14.67 -12.32 14.34 -13 14 C-11.02108364 11.85393535 -9.04187901 9.70813786 -7.0625 7.5625 C-6.49853516 6.95083984 -5.93457031 6.33917969 -5.35351562 5.70898438 C-4.81533203 5.12568359 -4.27714844 4.54238281 -3.72265625 3.94140625 C-3.22515869 3.40201416 -2.72766113 2.86262207 -2.21508789 2.30688477 C-1.48918929 1.52614632 -0.75381738 0.75381738 0 0 Z " fill="#C31B1C" transform="translate(440,585)"/>
<path d="M0 0 C0.66 0.66 1.32 1.32 2 2 C-1.96 5.96 -5.92 9.92 -10 14 C-10 10.2814858 -9.14087832 9.68195394 -6.6875 7 C-5.76517578 5.9790625 -5.76517578 5.9790625 -4.82421875 4.9375 C-3.24455272 3.25973908 -1.64189074 1.61663089 0 0 Z " fill="#C41E1F" transform="translate(422,604)"/>
<path d="M0 0 C0.33 0.99 0.66 1.98 1 3 C-0.87109375 5.69921875 -0.87109375 5.69921875 -3.4375 8.6875 C-4.28183594 9.68136719 -5.12617187 10.67523437 -5.99609375 11.69921875 C-6.98802734 12.83810547 -6.98802734 12.83810547 -8 14 C-8.66 13.01 -9.32 12.02 -10 11 C-9.44570313 10.45730469 -8.89140625 9.91460938 -8.3203125 9.35546875 C-7.23363281 8.28232422 -7.23363281 8.28232422 -6.125 7.1875 C-5.40570312 6.47980469 -4.68640625 5.77210938 -3.9453125 5.04296875 C-1.84641063 2.95600806 -1.84641063 2.95600806 0 0 Z " fill="#C31F20" transform="translate(951,731)"/>
<path d="M0 0 C0.66 0 1.32 0 2 0 C1.52188823 1.77111844 1.0424722 3.54188483 0.5625 5.3125 C0.29566406 6.29863281 0.02882813 7.28476562 -0.24609375 8.30078125 C-0.78079425 10.21517526 -1.37144538 12.11433615 -2 14 C-2.66 14 -3.32 14 -4 14 C-4.56561146 8.34388537 -2.71391278 4.77357872 0 0 Z " fill="#C32123" transform="translate(368,664)"/>
<path d="M0 0 C0.99 0.33 1.98 0.66 3 1 C-0.63 4.63 -4.26 8.26 -8 12 C-8.66 11.67 -9.32 11.34 -10 11 C-6.7 7.37 -3.4 3.74 0 0 Z " fill="#C52123" transform="translate(661,351)"/>
<path d="M0 0 C0.99333958 2.62656048 1.07747985 3.7760514 0.14453125 6.47265625 C-0.29503906 7.32730469 -0.73460937 8.18195313 -1.1875 9.0625 C-1.82751953 10.34833984 -1.82751953 10.34833984 -2.48046875 11.66015625 C-4.06677186 14.10281836 -5.57839896 15.41844043 -8 17 C-6.3341708 10.83643195 -3.12194714 5.51740344 0 0 Z " fill="#F3D3D4" transform="translate(496,330)"/>
<path d="M0 0 C0.66 0.66 1.32 1.32 2 2 C-0.97 4.97 -3.94 7.94 -7 11 C-7.66 10.34 -8.32 9.68 -9 9 C-6.03 6.03 -3.06 3.06 0 0 Z " fill="#C41A1B" transform="translate(685,326)"/>
<path d="M0 0 C0.66 0 1.32 0 2 0 C0.59155282 3.21524305 -1.10344786 5.32183868 -3.625 7.75 C-4.57246094 8.67039062 -4.57246094 8.67039062 -5.5390625 9.609375 C-6.02117188 10.06828125 -6.50328125 10.5271875 -7 11 C-7.33 10.34 -7.66 9.68 -8 9 C-6.85459775 7.68712379 -5.70866567 6.37470979 -4.5625 5.0625 C-3.92441406 4.33160156 -3.28632812 3.60070312 -2.62890625 2.84765625 C-1.77458541 1.87860647 -0.91348825 0.91348825 0 0 Z " fill="#C62324" transform="translate(572,445)"/>
<path d="M0 0 C0.66 0 1.32 0 2 0 C1.52797514 4.24822374 -0.96655518 6.19989709 -4 9 C-4.99 8.67 -5.98 8.34 -7 8 C-5.88200014 6.66079162 -4.75538103 5.32877444 -3.625 4 C-2.68527344 2.88625 -2.68527344 2.88625 -1.7265625 1.75 C-1.15679687 1.1725 -0.58703125 0.595 0 0 Z " fill="#C32223" transform="translate(60,77)"/>
<path d="M0 0 C0.66 0.33 1.32 0.66 2 1 C-4.07792208 7.24675325 -4.07792208 7.24675325 -7 9 C-7.99 8.67 -8.98 8.34 -10 8 C-6.7 5.36 -3.4 2.72 0 0 Z " fill="#C42223" transform="translate(95,45)"/>
<path d="M0 0 C0.99 0.33 1.98 0.66 3 1 C0.36 3.64 -2.28 6.28 -5 9 C-5.33 8.01 -5.66 7.02 -6 6 C-4.02 4.02 -2.04 2.04 0 0 Z " fill="#C62122" transform="translate(811,882)"/>
<path d="M0 0 C2 1 2 1 2.8515625 3.1796875 C3.10679687 4.06914063 3.36203125 4.95859375 3.625 5.875 C4.01558594 7.20144531 4.01558594 7.20144531 4.4140625 8.5546875 C5 11 5 11 5 14 C4.34 14 3.68 14 3 14 C3 12.35 3 10.7 3 9 C2.34 9 1.68 9 1 9 C0.67 6.03 0.34 3.06 0 0 Z " fill="#F1DBDB" transform="translate(360,702)"/>
<path d="M0 0 C0.99 0.33 1.98 0.66 3 1 C1.68 3.64 0.36 6.28 -1 9 C-1.99 8.01 -2.98 7.02 -4 6 C-2.68 4.02 -1.36 2.04 0 0 Z " fill="#F3E7E6" transform="translate(366,663)"/>
<path d="M0 0 C0.66 0.99 1.32 1.98 2 3 C-0.31 6.3 -2.62 9.6 -5 13 C-5.33 12.34 -5.66 11.68 -6 11 C-4.78515625 8.3984375 -4.78515625 8.3984375 -3.0625 5.375 C-2.21365234 3.87066406 -2.21365234 3.87066406 -1.34765625 2.3359375 C-0.90292969 1.56507813 -0.45820313 0.79421875 0 0 Z " fill="#F5D9DA" transform="translate(327,644)"/>
<path d="M0 0 C0.99 0.33 1.98 0.66 3 1 C0.36 3.64 -2.28 6.28 -5 9 C-5.33 8.01 -5.66 7.02 -6 6 C-4.02 4.02 -2.04 2.04 0 0 Z " fill="#C31B1C" transform="translate(880,808)"/>
<path d="M0 0 C-1.39332574 3.36720387 -2.9789286 4.9859524 -6 7 C-6.66 6.34 -7.32 5.68 -8 5 C-3.375 0 -3.375 0 0 0 Z " fill="#F9E9E9" transform="translate(761,739)"/>
<path d="M0 0 C4.62 0 9.24 0 14 0 C11 3 11 3 7.3125 3.1875 C5.6728125 3.0946875 5.6728125 3.0946875 4 3 C4 2.34 4 1.68 4 1 C2.68 0.67 1.36 0.34 0 0 Z " fill="#FBF4F3" transform="translate(915,491)"/>
<path d="M0 0 C-1.44253657 3.36591866 -3.33264727 5.51047079 -6 8 C-6.99 7.67 -7.98 7.34 -9 7 C-7.88121617 5.82737096 -6.75476949 4.66204862 -5.625 3.5 C-4.68527344 2.52546875 -4.68527344 2.52546875 -3.7265625 1.53125 C-2 0 -2 0 0 0 Z " fill="#C72627" transform="translate(784,913)"/>
<path d="M0 0 C0 3.58912412 -0.66436554 4.10857029 -3 6.6875 C-3.556875 7.31011719 -4.11375 7.93273437 -4.6875 8.57421875 C-5.120625 9.04472656 -5.55375 9.51523437 -6 10 C-6.66 9.34 -7.32 8.68 -8 8 C-5.36 5.36 -2.72 2.72 0 0 Z " fill="#C82A2A" transform="translate(853,837)"/>
<path d="M0 0 C0.99 0.33 1.98 0.66 3 1 C1.35 2.65 -0.3 4.3 -2 6 C-2.99 5.67 -3.98 5.34 -5 5 C-3.35 3.35 -1.7 1.7 0 0 Z " fill="#C52122" transform="translate(890,797)"/>
<path d="M0 0 C0.99 0.33 1.98 0.66 3 1 C-0.96 4.465 -0.96 4.465 -5 8 C-5.66 7.67 -6.32 7.34 -7 7 C-4.69 4.69 -2.38 2.38 0 0 Z " fill="#C72A2B" transform="translate(995,684)"/>
<path d="M0 0 C0.99 0.33 1.98 0.66 3 1 C1.68 2.65 0.36 4.3 -1 6 C-2.32 5.67 -3.64 5.34 -5 5 C-3.35 3.35 -1.7 1.7 0 0 Z " fill="#C62021" transform="translate(538,481)"/>
<path d="M0 0 C0.33 0 0.66 0 1 0 C1.1875 3.375 1.1875 3.375 1 7 C0.01 7.66 -0.98 8.32 -2 9 C-2.66 8.34 -3.32 7.68 -4 7 C-3.34 7 -2.68 7 -2 7 C-2 5.35 -2 3.7 -2 2 C-1.34 2 -0.68 2 0 2 C0 1.34 0 0.68 0 0 Z " fill="#F7E5E3" transform="translate(949,484)"/>
<path d="M0 0 C0.33 0.99 0.66 1.98 1 3 C-1.31 4.98 -3.62 6.96 -6 9 C-6 6 -6 6 -4.6875 4.39453125 C-4.130625 3.87246094 -3.57375 3.35039062 -3 2.8125 C-2.443125 2.28269531 -1.88625 1.75289063 -1.3125 1.20703125 C-0.6628125 0.60955078 -0.6628125 0.60955078 0 0 Z " fill="#C52021" transform="translate(557,461)"/>
<path d="M0 0 C0 3.58912412 -0.66436554 4.10857029 -3 6.6875 C-3.556875 7.31011719 -4.11375 7.93273438 -4.6875 8.57421875 C-5.120625 9.04472656 -5.55375 9.51523438 -6 10 C-6.66 9.34 -7.32 8.68 -8 8 C-5.36 5.36 -2.72 2.72 0 0 Z " fill="#C81F1F" transform="translate(1186,1183)"/>
<path d="M0 0 C0.33 0.99 0.66 1.98 1 3 C-0.65 4.65 -2.3 6.3 -4 8 C-4.99 7.67 -5.98 7.34 -7 7 C-4.69 4.69 -2.38 2.38 0 0 Z " fill="#C32426" transform="translate(472,551)"/>
<path d="M0 0 C-1.5830577 4.2742558 -4.50568404 6.26531794 -8 9 C-8.66 8.67 -9.32 8.34 -10 8 C-8.71451591 6.66070495 -7.42141845 5.32871357 -6.125 4 C-5.04605469 2.88625 -5.04605469 2.88625 -3.9453125 1.75 C-2 0 -2 0 0 0 Z " fill="#C62727" transform="translate(612,405)"/>
<path d="M0 0 C0.99 0.33 1.98 0.66 3 1 C-0.465 3.97 -0.465 3.97 -4 7 C-4.66 6.67 -5.32 6.34 -6 6 C-4.02 4.02 -2.04 2.04 0 0 Z " fill="#C52525" transform="translate(958,724)"/>
<path d="M0 0 C0.66 0.99 1.32 1.98 2 3 C-0.64 4.98 -3.28 6.96 -6 9 C-4.68775452 5.06326356 -3.08089673 2.77280706 0 0 Z " fill="#C42426" transform="translate(585,431)"/>
<path d="M0 0 C0.99 0.33 1.98 0.66 3 1 C1.35 2.65 -0.3 4.3 -2 6 C-2.99 5.67 -3.98 5.34 -5 5 C-3.35 3.35 -1.7 1.7 0 0 Z " fill="#C52627" transform="translate(452,572)"/>
<path d="M0 0 C0.66 0.66 1.32 1.32 2 2 C-0.97 4.475 -0.97 4.475 -4 7 C-4.66 6.67 -5.32 6.34 -6 6 C-4.02 4.02 -2.04 2.04 0 0 Z " fill="#C01F1F" transform="translate(491,531)"/>
<path d="M0 0 C0.66 0.66 1.32 1.32 2 2 C-1.465 4.97 -1.465 4.97 -5 8 C-5.66 7.67 -6.32 7.34 -7 7 C-4.69 4.69 -2.38 2.38 0 0 Z " fill="#C31D1E" transform="translate(593,423)"/>
<path d="M0 0 C1.98 1.65 3.96 3.3 6 5 C5.67 5.66 5.34 6.32 5 7 C3.0625 6.3125 3.0625 6.3125 1 5 C0.25 2.375 0.25 2.375 0 0 Z " fill="#CB2F32" transform="translate(691,927)"/>
<path d="M0 0 C0.99 0.33 1.98 0.66 3 1 C1.35 2.65 -0.3 4.3 -2 6 C-2.99 5.67 -3.98 5.34 -5 5 C-3.35 3.35 -1.7 1.7 0 0 Z " fill="#C82929" transform="translate(766,930)"/>
<path d="M0 0 C3.36720387 1.39332574 4.9859524 2.9789286 7 6 C4 6 4 6 1.8125 4.125 C0 2 0 2 0 0 Z " fill="#C42B2E" transform="translate(713,849)"/>
<path d="M0 0 C3.36720387 1.39332574 4.9859524 2.9789286 7 6 C4 6 4 6 1.8125 4.125 C0 2 0 2 0 0 Z " fill="#CB3032" transform="translate(693,829)"/>
<path d="M0 0 C0.99 0.33 1.98 0.66 3 1 C1.35 2.98 -0.3 4.96 -2 7 C-2.66 6.01 -3.32 5.02 -4 4 C-2.68 2.68 -1.36 1.36 0 0 Z " fill="#C41F20" transform="translate(931,753)"/>
<path d="M0 0 C0.99 0.33 1.98 0.66 3 1 C1.35 2.65 -0.3 4.3 -2 6 C-2.99 5.67 -3.98 5.34 -5 5 C-3.35 3.35 -1.7 1.7 0 0 Z " fill="#C21D1E" transform="translate(972,709)"/>
<path d="M0 0 C0.66 1.32 1.32 2.64 2 4 C0.02 6.97 0.02 6.97 -2 10 C-2.6875 8.375 -2.6875 8.375 -3 6 C-1.5625 2.75 -1.5625 2.75 0 0 Z " fill="#C62427" transform="translate(592,571)"/>
<path d="M0 0 C1.60031344 3.20062687 0.03173691 5.72271806 -1 9 C-2.38111722 6.7252187 -3.05694702 5.49828639 -2.75 2.8125 C-2 1 -2 1 0 0 Z " fill="#EFCFCF" transform="translate(363,675)"/>
</svg>
